<?xml version="1.0" encoding="UTF-8"?>
<svg version="1.1" xmlns="http://www.w3.org/2000/svg" width="512" height="512">
<path d="M0 0 C1.01790619 0.00215515 2.03581238 0.0043103 3.08456421 0.00653076 C17.69363523 0.05620146 32.02575853 0.30709809 46.375 3.3125 C47.34985352 3.51117676 48.32470703 3.70985352 49.32910156 3.91455078 C97.7109774 14.03517194 141.69928269 35.9516877 177.375 70.3125 C178.3640332 71.26068604 178.3640332 71.26068604 179.37304688 72.22802734 C188.86130305 81.37247479 197.6012044 90.66984009 205.375 101.3125 C206.23306152 102.46355017 207.09113451 103.61459177 207.94921875 104.765625 C213.98736829 112.95680614 219.34595521 121.47054105 224.375 130.3125 C224.73948242 130.94430176 225.10396484 131.57610352 225.47949219 132.22705078 C247.08534998 169.97532572 256.85198095 212.74189997 256.6875 255.9375 C256.68534485 256.95540619 256.6831897 257.97331238 256.68096924 259.02206421 C256.63129854 273.63113523 256.38040191 287.96325853 253.375 302.3125 C253.07698486 303.77478027 253.07698486 303.77478027 252.77294922 305.26660156 C242.65232806 353.6484774 220.7358123 397.63678269 186.375 433.3125 C185.74287598 433.97185547 185.11075195 434.63121094 184.45947266 435.31054688 C175.31502521 444.79880305 166.01765991 453.5387044 155.375 461.3125 C154.22394983 462.17056152 153.07290823 463.02863451 151.921875 463.88671875 C143.73224019 469.92427396 135.22961724 475.30707302 126.375 480.3125 C125.66778809 480.7146875 124.96057617 481.116875 124.23193359 481.53125 C101.09654164 494.5566741 75.92537591 503.30551461 49.9375 508.625 C49.21860596 508.77235596 48.49971191 508.91971191 47.7590332 509.0715332 C33.08339502 511.86090125 18.55831162 512.66142619 3.64770508 512.62817383 C0.70811513 512.6250221 -2.2304558 512.64854926 -5.16992188 512.67382812 C-18.54306192 512.71848737 -31.43916711 511.51301542 -44.625 509.3125 C-46.33055054 509.03031616 -46.33055054 509.03031616 -48.07055664 508.74243164 C-91.33802759 500.97044532 -132.38793216 480.98345309 -165.625 452.3125 C-166.37007813 451.67828125 -167.11515625 451.0440625 -167.8828125 450.390625 C-181.38779833 438.57948485 -194.05918743 425.82889772 -204.625 411.3125 C-205.48149066 410.16255169 -206.33826433 409.01281411 -207.1953125 407.86328125 C-213.23534209 399.67315742 -218.61867614 391.16870382 -223.625 382.3125 C-224.0271875 381.60528809 -224.429375 380.89807617 -224.84375 380.16943359 C-237.8691741 357.03404164 -246.61801461 331.86287591 -251.9375 305.875 C-252.08485596 305.15610596 -252.23221191 304.43721191 -252.3840332 303.6965332 C-255.35789088 288.05024391 -255.99800362 272.57681954 -255.9375 256.6875 C-255.93534485 255.66959381 -255.9331897 254.65168762 -255.93096924 253.60293579 C-255.88129854 238.99386477 -255.63040191 224.66174147 -252.625 210.3125 C-252.42632324 209.33764648 -252.22764648 208.36279297 -252.02294922 207.35839844 C-241.90232806 158.9765226 -219.9858123 114.98821731 -185.625 79.3125 C-184.99287598 78.65314453 -184.36075195 77.99378906 -183.70947266 77.31445312 C-174.56502521 67.82619695 -165.26765991 59.0862956 -154.625 51.3125 C-153.47394983 50.45443848 -152.32290823 49.59636549 -151.171875 48.73828125 C-142.98224019 42.70072604 -134.47961724 37.31792698 -125.625 32.3125 C-124.91778809 31.9103125 -124.21057617 31.508125 -123.48193359 31.09375 C-100.34654164 18.0683259 -75.17537591 9.31948539 -49.1875 4 C-48.46860596 3.85264404 -47.74971191 3.70528809 -47.0090332 3.5534668 C-31.36274391 0.57960912 -15.88931954 -0.06050362 0 0 Z " fill="#F3C01B" transform="translate(255.625,-0.3125)"/>
<path d="M0 0 C1.01790619 0.00215515 2.03581238 0.0043103 3.08456421 0.00653076 C17.69363523 0.05620146 32.02575853 0.30709809 46.375 3.3125 C47.34985352 3.51117676 48.32470703 3.70985352 49.32910156 3.91455078 C97.7109774 14.03517194 141.69928269 35.9516877 177.375 70.3125 C178.3640332 71.26068604 178.3640332 71.26068604 179.37304688 72.22802734 C188.86130305 81.37247479 197.6012044 90.66984009 205.375 101.3125 C206.23306152 102.46355017 207.09113451 103.61459177 207.94921875 104.765625 C213.98736829 112.95680614 219.34595521 121.47054105 224.375 130.3125 C224.73948242 130.94430176 225.10396484 131.57610352 225.47949219 132.22705078 C237.87357984 153.88115185 252.375 183.88175925 252.375 209.3125 C248.6896169 207.76530367 246.34353508 205.5287186 243.53393555 202.71435547 C243.06667053 202.2489888 242.59940552 201.78362213 242.11798096 201.30415344 C240.57763441 199.76750444 239.04459903 198.22378176 237.51171875 196.6796875 C236.43597845 195.60275373 235.35986671 194.52619086 234.28340149 193.44998169 C232.02672298 191.19173957 229.77343971 188.93018163 227.52270508 186.66601562 C224.65659569 183.78300868 221.78404108 180.9065349 218.909091 178.03234673 C216.68412822 175.80710999 214.46179716 173.57926025 212.24030495 171.35055923 C211.18328214 170.29038199 210.12567706 169.23078493 209.06744957 168.17181015 C203.92477108 163.02152747 198.88787239 157.83549886 194.147995 152.30886841 C190.4505448 148.14558945 186.45125889 144.26801844 182.50390625 140.34375 C181.581577 139.42283569 180.65924774 138.50192139 179.70896912 137.55310059 C177.28311523 135.13102446 174.85427148 132.71196921 172.42474365 130.2935791 C169.93560884 127.81476163 167.44938105 125.33303203 164.96289062 122.8515625 C160.10306542 118.00239076 155.24006822 113.15641137 150.375 108.3125 C147.42234888 109.64244383 145.35149784 111.09029316 143.07519531 113.38525391 C142.45485413 114.00574615 141.83451294 114.6262384 141.19537354 115.26553345 C140.53793152 115.93329803 139.8804895 116.60106262 139.203125 117.2890625 C138.5207074 117.97431 137.83828979 118.6595575 137.13519287 119.36557007 C134.96038402 121.55155845 132.79263928 123.74440429 130.625 125.9375 C129.1502001 127.42233255 127.67494494 128.90671306 126.19921875 130.390625 C122.58584552 134.0260291 118.97879147 137.66759824 115.375 141.3125 C111.75807227 139.78352424 109.4546478 137.63434367 106.69824219 134.86279297 C105.77758972 133.94198944 104.85693726 133.02118591 103.90838623 132.07247925 C102.9127747 131.06665535 101.91727352 130.0607222 100.921875 129.0546875 C99.89669807 128.02577851 98.87107725 126.99731163 97.84503174 125.9692688 C95.15106836 123.26768419 92.46316632 120.56014659 89.77648926 117.85131836 C87.03171696 115.08605511 84.28124528 112.32647367 81.53125 109.56640625 C76.14024427 104.15397726 70.75563036 98.73524562 65.375 93.3125 C60.5365658 97.34680562 55.97741582 101.56805864 51.53492737 106.03231812 C50.88374512 106.68264594 50.23256287 107.33297376 49.56164783 108.00300848 C47.39752531 110.16549429 45.23697762 112.33151548 43.07641602 114.49755859 C41.51896795 116.05528895 39.96129923 117.61279871 38.40342712 119.17010498 C34.18685826 123.3863875 29.97337497 127.60574129 25.76044583 131.82566023 C21.35266465 136.23970198 16.94204246 140.65090307 12.53172302 145.06240845 C5.13354932 152.4633349 -2.26287737 159.86600349 -9.65795898 167.27001953 C-17.27234183 174.89359215 -24.88778227 182.51610576 -32.50463867 190.13720703 C-32.97474491 190.60757599 -33.44485115 191.07794495 -33.92920303 191.56256752 C-36.2877746 193.9224442 -38.64636802 196.28229905 -41.00496948 198.64214587 C-60.54814556 218.19576831 -80.0877499 237.75295667 -99.625 257.3125 C-98.67408239 258.4291204 -97.7221318 259.54486116 -96.7697506 260.6602335 C-96.23974492 261.28165653 -95.70973925 261.90307956 -95.1636728 262.54333359 C-93.22371746 264.77389478 -91.1816233 266.87574526 -89.08837891 268.96264648 C-87.82775131 270.22316078 -87.82775131 270.22316078 -86.54165649 271.50914001 C-85.65392548 272.39170975 -84.76619446 273.27427948 -83.8515625 274.18359375 C-82.9278183 275.105923 -82.0040741 276.02825226 -81.05233765 276.97853088 C-78.61824569 279.40883814 -76.18116403 281.83612496 -73.7434082 284.26275635 C-71.2476689 286.74819364 -68.75482292 289.23652932 -66.26171875 291.72460938 C-61.3856114 296.59005096 -56.50633369 301.45230198 -51.625 306.3125 C-52.95494383 309.26515112 -54.40279316 311.33600216 -56.69775391 313.61230469 C-57.62849228 314.54281647 -57.62849228 314.54281647 -58.57803345 315.49212646 C-59.24579803 316.14956848 -59.91356262 316.8070105 -60.6015625 317.484375 C-61.28681 318.1667926 -61.9720575 318.84921021 -62.67807007 319.55230713 C-64.86405845 321.72711598 -67.05690429 323.89486072 -69.25 326.0625 C-70.73483255 327.5372999 -72.21921306 329.01255506 -73.703125 330.48828125 C-77.3385291 334.10165448 -80.98009824 337.70870853 -84.625 341.3125 C-88.74234566 339.42438747 -91.51272577 336.64535041 -94.6328125 333.4296875 C-95.19950653 332.85542023 -95.76620056 332.28115295 -96.35006714 331.68948364 C-98.15493935 329.86022841 -99.95320279 328.02468548 -101.75 326.1875 C-104.1219309 323.76256506 -106.50026304 321.34418498 -108.8828125 318.9296875 C-109.42865997 318.36724335 -109.97450745 317.80479919 -110.53689575 317.22531128 C-111.86204824 315.8829077 -113.23918422 314.59218399 -114.625 313.3125 C-115.285 313.3125 -115.945 313.3125 -116.625 313.3125 C-118.09560565 315.21525957 -118.09560565 315.21525957 -119.57421875 317.71875 C-120.46367187 319.15734375 -120.46367187 319.15734375 -121.37109375 320.625 C-122.01175781 321.676875 -122.65242187 322.72875 -123.3125 323.8125 C-124.68080092 326.03136635 -126.04929577 328.25011313 -127.41796875 330.46875 C-128.12563217 331.62100539 -128.83315161 332.77334922 -129.54052734 333.92578125 C-132.70788987 339.07191066 -135.91683029 344.19175123 -139.125 349.3125 C-140.35832294 351.28499994 -141.59139407 353.25765735 -142.82421875 355.23046875 C-143.44087402 356.21708496 -144.0575293 357.20370117 -144.69287109 358.22021484 C-146.38610738 360.93016314 -148.07870863 363.64050669 -149.77090454 366.35110474 C-150.81848279 368.02907978 -151.86627127 369.70692357 -152.9140625 371.38476562 C-154.2360447 373.5017236 -155.55767464 375.61890161 -156.87890625 377.73632812 C-157.76835937 379.16041992 -157.76835937 379.16041992 -158.67578125 380.61328125 C-159.19825439 381.45028564 -159.72072754 382.28729004 -160.2590332 383.1496582 C-161.35604098 384.88663621 -162.48542941 386.60314412 -163.625 388.3125 C-163.29560091 391.49183299 -162.1934972 393.11057878 -159.94116211 395.30517578 C-159.38065659 395.85899933 -158.82015106 396.41282288 -158.24266052 396.98342896 C-157.63535599 397.56897552 -157.02805145 398.15452209 -156.40234375 398.7578125 C-155.47223228 399.67444168 -155.47223228 399.67444168 -154.52333069 400.60958862 C-152.54338728 402.55951282 -150.5538496 404.49923064 -148.5625 406.4375 C-146.56848987 408.38377669 -144.57676245 410.33218537 -142.59095764 412.28683472 C-141.3551148 413.50282615 -140.11436019 414.71384879 -138.86839294 415.91946411 C-137.41601598 417.34621483 -136.01497175 418.82488615 -134.625 420.3125 C-134.625 420.9725 -134.625 421.6325 -134.625 422.3125 C-134.03912739 422.57361069 -133.45325478 422.83472137 -132.84962845 423.10374451 C-130.48759863 424.38715726 -128.92946255 425.75645213 -127.03094482 427.65258789 C-126.33548553 428.34240753 -125.64002625 429.03222717 -124.92349243 429.74295044 C-124.17111298 430.49937836 -123.41873352 431.25580627 -122.64355469 432.03515625 C-121.44298935 433.23046463 -121.44298935 433.23046463 -120.21817017 434.44992065 C-117.5726824 437.08660185 -114.93458165 439.73053631 -112.296875 442.375 C-110.46442459 444.20610373 -108.63167733 446.03691043 -106.79864502 447.86743164 C-102.95885303 451.70427404 -99.12261176 455.54461673 -95.2890625 459.38769531 C-90.85297073 463.83468647 -86.40969883 468.27440581 -81.96265864 472.71044636 C-77.68661817 476.9763321 -73.41620522 481.24780036 -69.14817047 485.521698 C-67.32987743 487.34132928 -65.51008633 489.15946484 -63.68880463 490.97610474 C-61.15063403 493.50922374 -58.61891714 496.04861751 -56.08886719 498.58984375 C-55.32839081 499.34627167 -54.56791443 500.10269958 -53.78439331 500.88204956 C-53.10021332 501.5718692 -52.41603333 502.26168884 -51.71112061 502.97241211 C-51.11161968 503.57266708 -50.51211876 504.17292206 -49.89445114 504.79136658 C-48.625 506.3125 -48.625 506.3125 -48.625 508.3125 C-96.67796181 500.70014961 -141.79949483 475.85443655 -176.625 442.3125 C-177.28435547 441.68037598 -177.94371094 441.04825195 -178.62304688 440.39697266 C-188.11130305 431.25252521 -196.8512044 421.95515991 -204.625 411.3125 C-205.48306152 410.16144983 -206.34113451 409.01040823 -207.19921875 407.859375 C-213.23677396 399.66974019 -218.61957302 391.16711724 -223.625 382.3125 C-224.0271875 381.60528809 -224.429375 380.89807617 -224.84375 380.16943359 C-237.8691741 357.03404164 -246.61801461 331.86287591 -251.9375 305.875 C-252.08485596 305.15610596 -252.23221191 304.43721191 -252.3840332 303.6965332 C-255.35789088 288.05024391 -255.99800362 272.57681954 -255.9375 256.6875 C-255.93534485 255.66959381 -255.9331897 254.65168762 -255.93096924 253.60293579 C-255.88129854 238.99386477 -255.63040191 224.66174147 -252.625 210.3125 C-252.42632324 209.33764648 -252.22764648 208.36279297 -252.02294922 207.35839844 C-241.90232806 158.9765226 -219.9858123 114.98821731 -185.625 79.3125 C-184.99287598 78.65314453 -184.36075195 77.99378906 -183.70947266 77.31445312 C-174.56502521 67.82619695 -165.26765991 59.0862956 -154.625 51.3125 C-153.47394983 50.45443848 -152.32290823 49.59636549 -151.171875 48.73828125 C-142.98224019 42.70072604 -134.47961724 37.31792698 -125.625 32.3125 C-124.91778809 31.9103125 -124.21057617 31.508125 -123.48193359 31.09375 C-100.34654164 18.0683259 -75.17537591 9.31948539 -49.1875 4 C-48.46860596 3.85264404 -47.74971191 3.70528809 -47.0090332 3.5534668 C-31.36274391 0.57960912 -15.88931954 -0.06050362 0 0 Z " fill="#FEE605" transform="translate(255.625,-0.3125)"/>
<path d="M0 0 C1.1166204 0.95091761 2.23236116 1.9028682 3.3477335 2.8552494 C3.96915653 3.38525508 4.59057956 3.91526075 5.23083359 4.4613272 C7.46139478 6.40128254 9.56324526 8.4433767 11.65014648 10.53662109 C12.49048935 11.37703949 13.33083221 12.21745789 14.19664001 13.08334351 C15.52049461 14.41494003 15.52049461 14.41494003 16.87109375 15.7734375 C18.25458763 17.1590538 18.25458763 17.1590538 19.66603088 18.57266235 C22.09633814 21.00675431 24.52362496 23.44383597 26.95025635 25.8815918 C29.43569364 28.3773311 31.92402932 30.87017708 34.41210938 33.36328125 C39.27755096 38.2393886 44.13980198 43.11866631 49 48 C51.95265112 46.67005617 54.02350216 45.22220684 56.29980469 42.92724609 C56.92014587 42.30675385 57.54048706 41.6862616 58.17962646 41.04696655 C58.83706848 40.37920197 59.4945105 39.71143738 60.171875 39.0234375 C60.8542926 38.33819 61.53671021 37.6529425 62.23980713 36.94692993 C64.41461598 34.76094155 66.58236072 32.56809571 68.75 30.375 C70.2247999 28.89016745 71.70005506 27.40578694 73.17578125 25.921875 C76.78915448 22.2864709 80.39620853 18.64490176 84 15 C87.5912427 16.52734812 89.92657728 18.65645534 92.69262695 21.38623047 C93.61650711 22.29412323 94.54038727 23.20201599 95.49226379 24.13742065 C96.49141351 25.13019621 97.49007458 26.12346374 98.48828125 27.1171875 C99.51621596 28.13615389 100.54422712 29.15504316 101.5723114 30.17385864 C103.72193717 32.30701987 105.86715258 34.44451347 108.01000977 36.58447266 C110.76021097 39.32927152 113.52623026 42.05752365 116.29641438 44.7821331 C118.42288906 46.87892175 120.53807743 48.98681872 122.65025902 51.09799576 C123.66570331 52.10922624 124.68528095 53.11632337 125.70897865 54.11919785 C127.13581727 55.51928434 128.54554203 56.93674816 129.9543457 58.35498047 C130.76168655 59.15725067 131.5690274 59.95952087 132.40083313 60.78610229 C134 63 134 63 133.93659973 65.08627319 C132.8833025 67.23844459 131.76951425 68.58554114 130.06005859 70.26464844 C129.4420639 70.87918884 128.82406921 71.49372925 128.18734741 72.12689209 C127.51450714 72.78111145 126.84166687 73.43533081 126.1484375 74.109375 C125.45618073 74.79501526 124.76392395 75.48065552 124.0506897 76.18707275 C121.83243576 78.38191759 119.60431584 80.56639644 117.375 82.75 C115.16879015 84.92094528 112.96479298 87.09406851 110.76358032 89.27008057 C109.39444185 90.62248729 108.02221896 91.97178151 106.64633179 93.31732178 C103.53336763 96.38258955 100.53569194 99.48645675 97.69187069 102.80431271 C94.3379695 106.65793693 90.83195264 110.30873599 87.21376038 113.91322327 C86.56822266 114.56032098 85.92268494 115.20741869 85.25758547 115.87412542 C83.11687078 118.0187948 80.97264043 120.15991242 78.82836914 122.30102539 C77.28347945 123.84727157 75.73880226 125.39373009 74.19432068 126.94038391 C70.01484677 131.12440258 65.83223277 135.30526877 61.64889836 139.48542714 C57.26292098 143.86886563 52.87939211 148.25475159 48.49546814 152.64024353 C41.13427455 160.00325435 33.77097979 167.36415896 26.40649414 174.72387695 C17.90280246 183.22212688 9.40272014 191.72397217 0.90450197 200.22769552 C-6.40341333 207.54015467 -13.71328295 214.8506559 -21.02477747 222.1595363 C-25.3866068 226.51980986 -29.74776541 230.88074852 -34.10716057 235.24345589 C-38.20643364 239.34562613 -42.30816161 243.44532607 -46.41176414 247.54316521 C-47.91379489 249.04387824 -49.41498375 250.54543446 -50.91524887 252.0479126 C-52.97011151 254.10552577 -55.02805883 256.16000553 -57.08677673 258.21376038 C-57.67346899 258.80268336 -58.26016126 259.39160634 -58.86463207 259.99837548 C-62.50278823 263.61964979 -66.26835703 267.04273321 -70.16230875 270.38768095 C-73.13239018 272.99351524 -75.90779141 275.78401679 -78.6875 278.58984375 C-79.27547363 279.17923233 -79.86344727 279.76862091 -80.46923828 280.37586975 C-82.31522361 282.22737618 -84.15766892 284.08235817 -86 285.9375 C-87.2640885 287.20661373 -88.52840956 288.47549589 -89.79296875 289.74414062 C-92.86466724 292.8267632 -95.93320008 295.91250428 -99 299 C-102.16608791 297.61114393 -104.18063806 296.00972255 -106.53125 293.48828125 C-107.17707031 292.81345703 -107.82289063 292.13863281 -108.48828125 291.44335938 C-109.83528809 290.01657834 -111.1764053 288.58421507 -112.51171875 287.14648438 C-113.15753906 286.47552734 -113.80335938 285.80457031 -114.46875 285.11328125 C-115.05076172 284.49235596 -115.63277344 283.87143066 -116.23242188 283.23168945 C-117.90097297 281.79775947 -117.90097297 281.79775947 -119.89355469 282.11352539 C-122.51216253 283.21553803 -124.82050944 284.56854996 -127.234375 286.0703125 C-128.27094238 286.71170166 -129.30750977 287.35309082 -130.37548828 288.01391602 C-131.48907715 288.71057373 -132.60266602 289.40723145 -133.75 290.125 C-134.92014049 290.85191539 -136.09055479 291.57839018 -137.26123047 292.30444336 C-140.26694519 294.17056629 -143.2685334 296.04320994 -146.26867676 297.91827393 C-148.9146788 299.57148884 -151.56302028 301.22094862 -154.2109375 302.87109375 C-156.18235897 304.10145466 -158.15371413 305.33192184 -160.125 306.5625 C-161.09115234 307.16465332 -162.05730469 307.76680664 -163.05273438 308.38720703 C-167.72179648 311.30265628 -172.37800941 314.23488875 -177.00375366 317.21873474 C-178.67298702 318.2942096 -180.34599302 319.36382165 -182.01904297 320.43334961 C-184.13146246 321.78453829 -186.23757573 323.14565048 -188.33642578 324.51782227 C-189.28243652 325.12037842 -190.22844727 325.72293457 -191.203125 326.34375 C-192.03489258 326.88193359 -192.86666016 327.42011719 -193.72363281 327.97460938 C-196.46081729 329.20757536 -197.22977254 328.98965073 -200 328 C-201.58869934 326.80570984 -201.58869934 326.80570984 -203.13208008 325.2878418 C-203.71560745 324.72022629 -204.29913483 324.15261078 -204.90034485 323.5677948 C-205.51717636 322.9511647 -206.13400787 322.33453461 -206.76953125 321.69921875 C-207.40992844 321.06643509 -208.05032562 320.43365143 -208.71012878 319.7816925 C-210.05955656 318.4430604 -211.40503779 317.1004398 -212.74682617 315.75415039 C-214.80845858 313.69154334 -216.89049643 311.65118717 -218.97460938 309.61132812 C-220.2825485 308.30859405 -221.58923342 307.0045993 -222.89453125 305.69921875 C-223.52148392 305.08866135 -224.14843658 304.47810394 -224.79438782 303.8490448 C-226.51489258 302.1003418 -226.51489258 302.1003418 -229 299 C-228.57960166 295.91723775 -227.36584338 293.65374158 -225.76953125 291.0078125 C-225.07089966 289.84427246 -225.07089966 289.84427246 -224.3581543 288.65722656 C-223.84808838 287.8215918 -223.33802246 286.98595703 -222.8125 286.125 C-222.27858643 285.24295898 -221.74467285 284.36091797 -221.19458008 283.45214844 C-216.13912962 275.14274108 -210.91302223 266.94438666 -205.66796875 258.75390625 C-201.09965105 251.61011131 -196.62142131 244.41026705 -192.14916992 237.20605469 C-188.53494143 231.39901851 -184.83418675 225.66437892 -181 220 C-176.80374091 221.63778045 -174.01323215 224.73323182 -170.921875 227.8828125 C-170.35043762 228.45707977 -169.77900024 229.03134705 -169.19024658 229.62301636 C-167.37207055 231.4523581 -165.56098508 233.28854193 -163.75 235.125 C-162.51608671 236.36894774 -161.28171678 237.6124427 -160.046875 238.85546875 C-157.02593257 241.89842367 -154.01132908 244.94753254 -151 248 C-148.09456128 246.68623083 -146.03338941 245.27943508 -143.79199219 243.01904297 C-143.19167175 242.41857147 -142.59135132 241.81809998 -141.97283936 241.19943237 C-141.33727112 240.55354156 -140.70170288 239.90765076 -140.046875 239.2421875 C-139.38665344 238.57913605 -138.72643188 237.91608459 -138.04620361 237.23294067 C-135.94272176 235.11828168 -133.84630858 232.99676788 -131.75 230.875 C-130.32337739 229.43834443 -128.89629928 228.00214102 -127.46875 226.56640625 C-123.97386339 223.04949196 -120.48529938 219.52641453 -117 216 C-118.52897576 212.38307227 -120.67815633 210.0796478 -123.44970703 207.32324219 C-124.37051056 206.40258972 -125.29131409 205.48193726 -126.24002075 204.53338623 C-127.24584465 203.5377747 -128.2517778 202.54227352 -129.2578125 201.546875 C-130.28672149 200.52169807 -131.31518837 199.49607725 -132.3432312 198.47003174 C-135.04481581 195.77606836 -137.75235341 193.08816632 -140.46118164 190.40148926 C-143.22644489 187.65671696 -145.98602633 184.90624528 -148.74609375 182.15625 C-154.15852274 176.76524427 -159.57725438 171.38063036 -165 166 C-160.95464361 161.14731118 -156.71916172 156.57721561 -152.24221802 152.1219635 C-151.26060096 151.1390648 -151.26060096 151.1390648 -150.25915325 150.13630956 C-148.08284803 147.95836748 -145.90300702 145.78400037 -143.72314453 143.60961914 C-142.15556209 142.04231898 -140.58820023 140.47479817 -139.02104187 138.90707397 C-134.77790073 134.66364648 -130.53168816 130.42330461 -126.28491068 126.18351674 C-121.84284182 121.74770823 -117.4036134 117.30905893 -112.96408081 112.87071228 C-105.51607595 105.42546022 -98.06632868 97.98195494 -90.61523438 90.53979492 C-82.94315921 82.87690941 -75.27214297 75.21296639 -67.60253906 67.54760742 C-67.12918311 67.07451419 -66.65582715 66.60142096 -66.16812707 66.11399157 C-63.79326632 63.74043592 -61.41842627 61.36685956 -59.04359651 58.9932729 C-39.36555989 39.32568277 -19.68395733 19.66166436 0 0 Z " fill="#4F4F50" transform="translate(320,92)"/>
<path d="M0 0 C6.04265914 5.00255879 11.56098043 10.43177324 17.08984375 15.9921875 C18.04368954 16.94790248 18.99775941 17.90339388 19.95204163 18.8586731 C22.44153194 21.35194916 24.92800224 23.84821525 27.41381836 26.34515381 C29.95957994 28.90121509 32.50823777 31.45438505 35.05664062 34.0078125 C40.04057069 39.00241019 45.02131048 44.00017799 50 49 C48.72217674 51.80012153 47.39905532 53.85040226 45.2238903 56.02220535 C44.65559812 56.59447963 44.08730594 57.16675391 43.50179279 57.75636983 C42.87728485 58.37505209 42.25277691 58.99373435 41.60934448 59.63116455 C40.94610015 60.29611773 40.28285582 60.96107091 39.59951317 61.64617419 C37.37168902 63.87729754 35.13678254 66.1011887 32.90185547 68.32519531 C31.30509215 69.92139461 29.70876886 71.51803418 28.112854 73.11508179 C23.77460316 77.4539075 19.43020435 81.78653018 15.08469915 86.11808872 C10.54607442 90.64422853 6.01309597 95.17601581 1.47952271 99.70721436 C-6.13202002 107.313243 -13.74704396 114.91576631 -21.36474609 122.515625 C-29.21083931 130.34335888 -37.05482823 138.17319156 -44.89599609 146.00585938 C-45.37936393 146.48870176 -45.86273177 146.97154415 -46.36074711 147.46901813 C-48.78565978 149.89132071 -51.21053113 152.31366465 -53.63538194 154.73602915 C-73.75051965 174.83043501 -93.8729673 194.91750895 -114 215 C-117.59998808 213.30638958 -119.93894959 211.31438903 -122.76855469 208.49023438 C-123.22755661 208.03473709 -123.68655853 207.57923981 -124.1594696 207.10993958 C-125.66866055 205.6095207 -127.17045412 204.10194115 -128.671875 202.59375 C-129.71961725 201.54735523 -130.76765622 200.50125749 -131.815979 199.45544434 C-134.0080285 197.26633957 -136.1964288 195.07366731 -138.38232422 192.87841797 C-141.18905754 190.06026231 -144.00471138 187.25121745 -146.82313156 184.44475555 C-148.9868103 182.28828892 -151.14572128 180.12709999 -153.30319977 177.96443176 C-154.33998925 176.92630545 -155.37827381 175.88967012 -156.41805267 174.85453796 C-157.86653819 173.41110988 -159.30796724 171.96061089 -160.74902344 170.50976562 C-161.57190857 169.68528931 -162.3947937 168.86081299 -163.24261475 168.01135254 C-165 166 -165 166 -165 164 C-163.65429687 162.67553711 -163.65429687 162.67553711 -161.71875 161.08984375 C-156.00089374 156.22790116 -150.77940237 150.88753321 -145.5 145.5625 C-144.47679861 144.5342702 -143.45336267 143.50627374 -142.4296875 142.47851562 C-139.95042001 139.98835662 -137.47432462 137.49507167 -135 135 C-132.11357964 136.39469264 -129.83483634 137.88065813 -127.375 139.9375 C-121.24723236 144.5873274 -114.03937367 146.68820196 -106.34375 146.3359375 C-90.46536033 144.06003498 -80.26572576 130.43556002 -69.4765625 119.6796875 C-68.85083721 119.05678959 -68.22511192 118.43389168 -67.58042526 117.79211807 C-64.27929378 114.50585024 -60.98094751 111.21681843 -57.68505859 107.92529297 C-54.29596204 104.54171213 -50.89765743 101.16753721 -47.49718666 97.79539299 C-44.8652485 95.18210893 -42.24007184 92.56211128 -39.61668015 89.9402504 C-38.3665161 88.69309896 -37.11386812 87.44843203 -35.85863113 86.20638657 C-34.10509591 84.4699961 -32.36136881 82.72428556 -30.61962891 80.97607422 C-29.85125198 80.22151947 -29.85125198 80.22151947 -29.06735229 79.45172119 C-22.55560643 72.86427646 -18.98077872 65.53582453 -18.625 56.25 C-18.84143943 45.96276135 -22.86713429 39.17293799 -30 32 C-28.71977125 29.19030533 -27.39285871 27.1460762 -25.20263672 24.97558594 C-24.64220673 24.41530701 -24.08177673 23.85502808 -23.50436401 23.277771 C-22.90222076 22.68595032 -22.30007751 22.09412964 -21.6796875 21.484375 C-21.06102814 20.86854553 -20.44236877 20.25271606 -19.80496216 19.6182251 C-17.83296186 17.65739664 -15.85411263 15.70364699 -13.875 13.75 C-12.53469836 12.41973201 -11.19484917 11.089008 -9.85546875 9.7578125 C-6.57553411 6.4998985 -3.28944058 3.24831467 0 0 Z " fill="#353635" transform="translate(370,142)"/>
<path d="M0 0 C9.74014173 6.265726 19.58208133 15.73768247 22.81713867 27.1472168 C24.62055327 35.5720284 23.48038777 43.65387091 19.23046875 51.078125 C12.44580921 59.55949844 4.37942048 67.12534946 -3.2734375 74.8203125 C-4.22246099 75.77544928 -4.22246099 75.77544928 -5.19065666 76.74988174 C-8.52970257 80.10960968 -11.87188635 83.46618025 -15.21655273 86.8203125 C-18.65335702 90.26824408 -22.07830433 93.7277151 -25.50085545 97.18978691 C-28.15457348 99.86968883 -30.81717674 102.54062914 -33.4822216 105.20926285 C-34.74898068 106.48087008 -36.01238089 107.75583317 -37.2722187 109.03429794 C-39.03483422 110.82137994 -40.80979187 112.59528531 -42.58813477 114.36669922 C-43.09692673 114.88830124 -43.60571869 115.40990326 -44.12992859 115.9473114 C-50.19914203 121.9312876 -58.43056249 126.04465953 -67.01953125 126.390625 C-80.39263951 126.00853619 -88.59484147 118.77562206 -97.56640625 109.59765625 C-100.43981483 106.31157729 -102.28984503 103.16446776 -103.76953125 99.078125 C-104.18203125 97.964375 -104.59453125 96.850625 -105.01953125 95.703125 C-106.81541441 87.02302307 -106.12605984 79.87159856 -101.76953125 72.078125 C-95.00925074 63.57388978 -86.89430225 56.02306699 -79.23046875 48.3359375 C-78.59653828 47.69917965 -77.9626078 47.0624218 -77.30946732 46.40636826 C-73.96484612 43.04688078 -70.6174586 39.6901805 -67.26757812 36.3359375 C-63.82346368 32.88630774 -60.38875287 29.42746878 -56.95607567 25.96646309 C-54.29646766 23.2882027 -51.63014732 20.61670171 -48.96196365 17.94698715 C-47.69248388 16.67449426 -46.42548924 15.3995168 -45.16111374 14.12195206 C-43.39358954 12.33728717 -41.61674561 10.56242168 -39.83740234 8.78955078 C-39.32501511 8.26794876 -38.81262787 7.74634674 -38.28471375 7.2089386 C-27.74322678 -3.21347932 -13.67878798 -6.28826713 0 0 Z " fill="#00C974" transform="translate(328.76953125,162.921875)"/>
<path d="M0 0 C2.89371921 1.2940676 4.63760947 3.11731705 6.87005615 5.36776733 C7.32905807 5.82633118 7.78806 6.28489502 8.26097107 6.75735474 C9.77232846 8.2707977 11.27278936 9.79457895 12.77337646 11.31869507 C13.82075507 12.37167044 14.86879916 13.42398425 15.91748047 14.47566223 C18.67286442 17.24248851 21.4191197 20.01820591 24.16357422 22.79586792 C26.96685528 25.62986293 29.7786714 28.45536134 32.58978271 31.28158569 C38.10208043 36.82603677 43.60476252 42.37990791 49.10150146 47.93978882 C47.77155764 50.89243993 46.3237083 52.96329098 44.02874756 55.23959351 C43.40825531 55.85993469 42.78776306 56.48027588 42.14846802 57.11941528 C41.48070343 57.7768573 40.81293884 58.43429932 40.12493896 59.11166382 C39.43969147 59.79408142 38.75444397 60.47649902 38.0484314 61.17959595 C35.86244301 63.3544048 33.66959718 65.52214954 31.47650146 67.68978882 C29.99166892 69.16458872 28.5072884 70.63984388 27.02337646 72.11557007 C23.38797236 75.7289433 19.74640322 79.33599735 16.10150146 82.93978882 C12.96880126 81.44971214 10.94445205 79.9748143 8.57025146 77.42807007 C7.92443115 76.75324585 7.27861084 76.07842163 6.61322021 75.38314819 C5.26621337 73.95636716 3.92509617 72.52400389 2.58978271 71.08627319 C1.9439624 70.41531616 1.29814209 69.74435913 0.63275146 69.05307007 C0.05073975 68.43214478 -0.53127197 67.81121948 -1.13092041 67.17147827 C-2.7994715 65.73754829 -2.7994715 65.73754829 -4.79205322 66.05331421 C-7.41066107 67.15532685 -9.71900797 68.50833878 -12.13287354 70.01010132 C-13.16944092 70.65149048 -14.2060083 71.29287964 -15.27398682 71.95370483 C-16.38757568 72.65036255 -17.50116455 73.34702026 -18.64849854 74.06478882 C-19.81863902 74.79170421 -20.98905333 75.518179 -22.159729 76.24423218 C-25.16544373 78.11035511 -28.16703193 79.98299876 -31.16717529 81.85806274 C-33.81317734 83.51127766 -36.46151881 85.16073744 -39.10943604 86.81088257 C-41.08085751 88.04124348 -43.05221266 89.27171066 -45.02349854 90.50228882 C-45.98965088 91.10444214 -46.95580322 91.70659546 -47.95123291 92.32699585 C-52.62029502 95.2424451 -57.27650794 98.17467757 -61.9022522 101.15852356 C-63.57148555 102.23399842 -65.24449156 103.30361047 -66.9175415 104.37313843 C-69.02996099 105.72432711 -71.13607426 107.0854393 -73.23492432 108.45761108 C-74.18093506 109.06016724 -75.1269458 109.66272339 -76.10162354 110.28353882 C-76.93339111 110.82172241 -77.76515869 111.35990601 -78.62213135 111.91439819 C-81.35931583 113.14736418 -82.12827107 112.92943954 -84.89849854 111.93978882 C-86.48719788 110.74549866 -86.48719788 110.74549866 -88.03057861 109.22763062 C-88.61410599 108.66001511 -89.19763336 108.0923996 -89.79884338 107.50758362 C-90.4156749 106.89095352 -91.03250641 106.27432343 -91.66802979 105.63900757 C-92.30842697 105.00622391 -92.94882416 104.37344025 -93.60862732 103.72148132 C-94.9580551 102.38284921 -96.30353632 101.04022862 -97.64532471 99.69393921 C-99.70695711 97.63133215 -101.78899496 95.59097599 -103.87310791 93.55111694 C-105.18104703 92.24838287 -106.48773196 90.94438812 -107.79302979 89.63900757 C-108.73345879 88.72317146 -108.73345879 88.72317146 -109.69288635 87.78883362 C-111.41339111 86.04013062 -111.41339111 86.04013062 -113.89849854 82.93978882 C-113.4781002 79.85702656 -112.26434191 77.5935304 -110.66802979 74.94760132 C-109.96939819 73.78406128 -109.96939819 73.78406128 -109.25665283 72.59701538 C-108.74658691 71.76138062 -108.236521 70.92574585 -107.71099854 70.06478882 C-107.17708496 69.1827478 -106.64317139 68.30070679 -106.09307861 67.39193726 C-101.03762815 59.0825299 -95.81152077 50.88417547 -90.56646729 42.69369507 C-85.99814958 35.54990013 -81.51991984 28.35005587 -77.04766846 21.14584351 C-73.43343996 15.33880733 -69.73268529 9.60416773 -65.89849854 3.93978882 C-61.70223944 5.57756927 -58.91173068 8.67302064 -55.82037354 11.82260132 C-55.24893616 12.39686859 -54.67749878 12.97113586 -54.08874512 13.56280518 C-52.27056909 15.39214692 -50.45948362 17.22833075 -48.64849854 19.06478882 C-47.41458524 20.30873656 -46.18021532 21.55223152 -44.94537354 22.79525757 C-41.92443111 25.83821249 -38.90982762 28.88732136 -35.89849854 31.93978882 C-32.98721206 30.62787237 -30.96532724 29.23864049 -28.75396729 26.94296265 C-28.16655762 26.33926346 -27.57914795 25.73556427 -26.97393799 25.11357117 C-26.03940796 24.14002937 -26.03940796 24.14002937 -25.08599854 23.14682007 C-23.75048969 21.78116637 -22.41453886 20.41594479 -21.07818604 19.05111694 C-18.97942787 16.89641489 -16.88480185 14.73807159 -14.7979126 12.5718689 C-12.7799454 10.48162834 -10.74683979 8.40713452 -8.71099854 6.33432007 C-8.08797852 5.67921951 -7.4649585 5.02411896 -6.82305908 4.34916687 C-6.23564941 3.75492416 -5.64823975 3.16068146 -5.04302979 2.5484314 C-4.53103027 2.01929642 -4.01903076 1.49016144 -3.49151611 0.94499207 C-1.89849854 -0.06021118 -1.89849854 -0.06021118 0 0 Z " fill="#00CA74" transform="translate(204.89849853515625,308.0602111816406)"/>
<path d="M0 0 C2.61876518 2.14464018 4.81306581 4.42934085 7 7 C2.11083977 12.89290067 -3.16218766 18.29773363 -8.58544922 23.69897461 C-9.54220215 24.65544493 -10.49873388 25.61213656 -11.45506287 26.56903076 C-14.0329704 29.14722341 -16.61393378 31.72233661 -19.19548559 34.29687953 C-21.89987734 36.99498979 -24.60140848 39.6959613 -27.30325317 42.3966217 C-32.4115714 47.50184069 -37.52243176 52.60450674 -42.63422596 57.70624501 C-48.45728011 63.51809417 -54.27747085 69.33280728 -60.09743094 75.14775455 C-72.06178606 87.10167716 -84.0297057 99.05202477 -96 111 C-97.12452552 110.08943538 -98.2415609 109.16961683 -99.35546875 108.24609375 C-99.97832764 107.7348999 -100.60118652 107.22370605 -101.24291992 106.69702148 C-106.82368674 101.30701035 -109.02315546 92.705245 -109.375 85.1875 C-108.89261227 68.40548468 -93.46415906 57.29448089 -82.4609375 46.2578125 C-81.82700703 45.62105465 -81.19307655 44.9842968 -80.53993607 44.32824326 C-77.19531487 40.96875578 -73.84792735 37.6120555 -70.49804688 34.2578125 C-67.05393243 30.80818274 -63.61922162 27.34934378 -60.18654442 23.88833809 C-57.52693641 21.2100777 -54.86061607 18.53857671 -52.1924324 15.86886215 C-50.92295263 14.59636926 -49.65595799 13.3213918 -48.39158249 12.04382706 C-46.62405829 10.25916217 -44.84721436 8.48429668 -43.06787109 6.71142578 C-42.55548386 6.18982376 -42.04309662 5.66822174 -41.5151825 5.1308136 C-29.70464039 -6.54632512 -14.38681138 -8.362981 0 0 Z " fill="#ABE133" transform="translate(332,165)"/>
<path d="M0 0 C3.5912427 1.52734812 5.92657728 3.65645534 8.69262695 6.38623047 C9.61650711 7.29412323 10.54038727 8.20201599 11.49226379 9.13742065 C12.49141351 10.13019621 13.49007458 11.12346374 14.48828125 12.1171875 C15.51621596 13.13615389 16.54422712 14.15504316 17.5723114 15.17385864 C19.72193717 17.30701987 21.86715258 19.44451347 24.01000977 21.58447266 C26.76021097 24.32927152 29.52623026 27.05752365 32.29641438 29.7821331 C34.42288906 31.87892175 36.53807743 33.98681872 38.65025902 36.09799576 C39.66570331 37.10922624 40.68528095 38.11632337 41.70897865 39.11919785 C43.13581727 40.51928434 44.54554203 41.93674816 45.9543457 43.35498047 C46.76168655 44.15725067 47.5690274 44.95952087 48.40083313 45.78610229 C50 48 50 48 49.94354248 50.07833862 C48.86353398 52.27793287 47.69267952 53.66841083 45.94897461 55.39160156 C45.30838608 56.0319635 44.66779755 56.67232544 44.00779724 57.33209229 C43.31299759 58.01140808 42.61819794 58.69072388 41.90234375 59.390625 C41.19348526 60.09523865 40.48462677 60.79985229 39.75428772 61.52581787 C37.4889672 63.77434785 35.21343792 66.01222238 32.9375 68.25 C31.39970665 69.77274708 29.86258869 71.29617654 28.32617188 72.8203125 C24.55858198 76.5548281 20.78255735 80.2806485 17 84 C13.34118823 82.46043866 11.0170821 80.25910943 8.23144531 77.45849609 C7.77244339 76.99978622 7.31344147 76.54107635 6.8405304 76.06846619 C5.33160325 74.5581509 3.82987546 73.04088612 2.328125 71.5234375 C1.28052776 70.4721083 0.23248672 69.42122115 -0.815979 68.37075806 C-3.5691252 65.60998984 -6.31621127 62.84326751 -9.06207275 60.07525635 C-11.86716916 57.24967072 -14.67796321 54.42976555 -17.48828125 51.609375 C-22.99777532 46.07845626 -28.50087877 40.54123411 -34 35 C-29.97251947 30.16701194 -25.75620587 25.61889996 -21.2890625 21.19140625 C-20.36956314 20.27402931 -20.36956314 20.27402931 -19.43148804 19.33811951 C-17.49835436 17.41052441 -15.56175013 15.48646072 -13.625 13.5625 C-12.30315301 12.24567596 -10.98153628 10.92862074 -9.66015625 9.61132812 C-6.44275701 6.40487627 -3.22224319 3.20158371 0 0 Z " fill="#02CA73" transform="translate(404,107)"/>
<path d="M0 0 C2.90465492 1.28280779 4.64068569 3.10492191 6.87678528 5.35905457 C7.56528816 6.04690033 7.56528816 6.04690033 8.2677002 6.74864197 C9.77905759 8.26208493 11.27951848 9.78586619 12.78010559 11.3099823 C13.82748419 12.36295767 14.87552828 13.41527148 15.92420959 14.46694946 C18.67959354 17.23377574 21.42584883 20.00949315 24.17030334 22.78715515 C26.97358441 25.62115016 29.78540053 28.44664857 32.59651184 31.27287292 C38.10880956 36.817324 43.61149164 42.37119514 49.10823059 47.93107605 C45.08075006 52.76406411 40.86443646 57.31217609 36.39729309 61.7396698 C35.78429352 62.35125443 35.17129395 62.96283905 34.53971863 63.59295654 C32.60658495 65.52055164 30.66998072 67.44461533 28.73323059 69.36857605 C27.4113836 70.68540009 26.08976687 72.00245531 24.76838684 73.31974792 C21.5509876 76.52619978 18.33047378 79.72949234 15.10823059 82.93107605 C11.44941882 81.39151471 9.12531269 79.19018548 6.3396759 76.38957214 C5.88067398 75.93086227 5.42167206 75.4721524 4.94876099 74.99954224 C3.43983384 73.48922695 1.93810605 71.97196217 0.43635559 70.45451355 C-0.61124165 69.40318435 -1.65928269 68.3522972 -2.70774841 67.30183411 C-5.46089461 64.54106589 -8.20798068 61.77434356 -10.95384216 59.0063324 C-13.75893857 56.18074677 -16.56973262 53.3608416 -19.38005066 50.54045105 C-24.88954473 45.0095323 -30.39264818 39.47231016 -35.89176941 33.93107605 C-35.13207352 33.17301666 -34.37237762 32.41495728 -33.58966064 31.63392639 C-31.62189183 29.66254054 -29.66500254 27.68441207 -27.72550964 25.68547058 C-24.61020354 22.48154284 -21.48000912 19.29262976 -18.34416199 16.10881042 C-16.99464448 14.73394756 -15.6496197 13.35466113 -14.30900574 11.97111511 C-12.36772268 9.9694408 -10.41095421 7.9841313 -8.45036316 6.00138855 C-7.85235397 5.37757294 -7.25434479 4.75375732 -6.63821411 4.11103821 C-2.44104934 -0.08893619 -2.44104934 -0.08893619 0 0 Z " fill="#ACE132" transform="translate(355.8917694091797,58.06892395019531)"/>
<path d="M0 0 C3.61692773 1.52897576 5.9203522 3.67815633 8.67675781 6.44970703 C10.05773651 7.83091232 10.05773651 7.83091232 11.46661377 9.24002075 C12.4622253 10.24584465 13.45772648 11.2517778 14.453125 12.2578125 C15.47830193 13.28672149 16.50392275 14.31518837 17.52996826 15.3432312 C20.22393164 18.04481581 22.91183368 20.75235341 25.59851074 23.46118164 C28.34328304 26.22644489 31.09375472 28.98602633 33.84375 31.74609375 C39.23475573 37.15852274 44.61936964 42.57725438 50 48 C48.67005617 50.95265112 47.22220684 53.02350216 44.92724609 55.29980469 C44.30675385 55.92014587 43.6862616 56.54048706 43.04696655 57.17962646 C42.37920197 57.83706848 41.71143738 58.4945105 41.0234375 59.171875 C40.33819 59.8542926 39.6529425 60.53671021 38.94692993 61.23980713 C36.76094155 63.41461598 34.56809571 65.58236072 32.375 67.75 C30.89016745 69.2247999 29.40578694 70.70005506 27.921875 72.17578125 C24.2864709 75.78915448 20.64490176 79.39620853 17 83 C12.95072701 81.13513872 10.18816171 78.44339661 7.09765625 75.29296875 C6.53807724 74.73055984 5.97849823 74.16815094 5.40196228 73.58869934 C3.61737822 71.79295299 1.83986445 69.99038953 0.0625 68.1875 C-1.12909311 66.98586765 -2.32114576 65.7846908 -3.51367188 64.58398438 C-5.71502543 62.36633969 -7.91363135 60.14604731 -10.10913086 57.92260742 C-12.72877484 55.27102548 -15.36187567 52.63320857 -18 50 C-23 45 -28 40 -33 35 C-31.67005617 32.04734888 -30.22220684 29.97649784 -27.92724609 27.70019531 C-27.30675385 27.07985413 -26.6862616 26.45951294 -26.04696655 25.82037354 C-25.37920197 25.16293152 -24.71143738 24.5054895 -24.0234375 23.828125 C-23.33819 23.1457074 -22.6529425 22.46328979 -21.94692993 21.76019287 C-19.76094155 19.58538402 -17.56809571 17.41763928 -15.375 15.25 C-13.89016745 13.7752001 -12.40578694 12.29994494 -10.921875 10.82421875 C-7.2864709 7.21084552 -3.64490176 3.60379147 0 0 Z " fill="#ABE133" transform="translate(154,258)"/>
<path d="M0 0 C0.99 0.33 1.98 0.66 3 1 C2.5769458 1.3494165 2.1538916 1.69883301 1.71801758 2.05883789 C-2.86808059 5.95271723 -7.14584276 10.08766089 -11.36328125 14.37109375 C-11.92602753 14.94171539 -12.4887738 15.51233704 -13.068573 16.10025024 C-15.41903975 18.48728175 -17.76636836 20.87723336 -20.10473633 23.27612305 C-21.830109 25.04361838 -23.56462552 26.80169829 -25.30078125 28.55859375 C-26.0929882 29.37873207 -26.0929882 29.37873207 -26.90119934 30.21543884 C-28.21155167 31.53494468 -29.60059655 32.77534132 -31 34 C-31.99 34 -32.98 34 -34 34 C-34.21171844 34.53703552 -34.42343689 35.07407104 -34.64157104 35.62738037 C-36.51200235 38.89425864 -39.07697976 41.33853721 -41.73486328 43.96191406 C-42.61312271 44.84061157 -42.61312271 44.84061157 -43.50912476 45.73706055 C-45.44148356 47.66802839 -47.38082516 49.59181947 -49.3203125 51.515625 C-50.66310456 52.85468611 -52.00545513 54.19419009 -53.34738159 55.53411865 C-56.87753717 59.05664429 -60.41365806 62.57312203 -63.9510498 66.08837891 C-67.56082851 69.67768551 -71.16494015 73.27267256 -74.76953125 76.8671875 C-81.84081558 83.91703318 -88.91841413 90.96050337 -96 98 C-97.11102333 97.05069805 -98.22161661 96.10089277 -99.33203125 95.15087891 C-99.95053955 94.6220108 -100.56904785 94.0931427 -101.20629883 93.54824829 C-103.52683392 91.54525886 -105.78425709 89.49342988 -108 87.375 C-108.78375 86.64023437 -109.5675 85.90546875 -110.375 85.1484375 C-112 83 -112 83 -111.7409668 81.11523438 C-110.95763576 78.87906301 -109.99329762 77.03623725 -108.76953125 75.0078125 C-108.07089966 73.84427246 -108.07089966 73.84427246 -107.3581543 72.65722656 C-106.84808838 71.8215918 -106.33802246 70.98595703 -105.8125 70.125 C-105.27858643 69.24295898 -104.74467285 68.36091797 -104.19458008 67.45214844 C-99.13912962 59.14274108 -93.91302223 50.94438666 -88.66796875 42.75390625 C-84.09965105 35.61011131 -79.62142131 28.41026705 -75.14916992 21.20605469 C-71.53494143 15.39901851 -67.83418675 9.66437892 -64 4 C-59.80374091 5.63778045 -57.01323215 8.73323182 -53.921875 11.8828125 C-53.35043762 12.45707977 -52.77900024 13.03134705 -52.19024658 13.62301636 C-50.37207055 15.4523581 -48.56098508 17.28854193 -46.75 19.125 C-45.51608671 20.36894774 -44.28171678 21.6124427 -43.046875 22.85546875 C-40.02593257 25.89842367 -37.01132908 28.94753254 -34 32 C-31.09456128 30.68623083 -29.03338941 29.27943508 -26.79199219 27.01904297 C-26.19167175 26.41857147 -25.59135132 25.81809998 -24.97283936 25.19943237 C-24.33727112 24.55354156 -23.70170288 23.90765076 -23.046875 23.2421875 C-22.38665344 22.57913605 -21.72643188 21.91608459 -21.04620361 21.23294067 C-18.94272176 19.11828168 -16.84630858 16.99676788 -14.75 14.875 C-13.32337739 13.43834443 -11.89629928 12.00214102 -10.46875 10.56640625 C-6.97386339 7.04949196 -3.48529938 3.52641453 0 0 Z " fill="#02CA74" transform="translate(203,308)"/>
<path d="M0 0 C4.29067546 1.65236651 7.1429553 4.8905207 10.296875 8.1015625 C10.89050842 8.69802582 11.48414185 9.29448914 12.09576416 9.9090271 C13.98526627 11.8096981 15.86768392 13.71721474 17.75 15.625 C19.03209065 16.91712468 20.31463761 18.20879676 21.59765625 19.5 C24.73708432 22.66144479 27.87017801 25.8290461 31 29 C29.51253583 32.88617244 27.48375475 34.25614982 23.9609375 36.36328125 C22.9179248 36.99500244 21.87491211 37.62672363 20.80029297 38.27758789 C19.66994629 38.94910889 18.53959961 39.62062988 17.375 40.3125 C16.19476001 41.02412433 15.01524461 41.73695168 13.83642578 42.45092773 C12.01885061 43.55155456 10.20085171 44.65140341 8.38058472 45.74757385 C2.50404237 49.28683834 -3.31412306 52.91654498 -9.125 56.5625 C-10.09099121 57.16489502 -11.05698242 57.76729004 -12.05224609 58.38793945 C-16.72206512 61.30221366 -21.37799602 64.23488011 -26.00375366 67.21873474 C-27.67298702 68.2942096 -29.34599302 69.36382165 -31.01904297 70.43334961 C-33.13146246 71.78453829 -35.23757573 73.14565048 -37.33642578 74.51782227 C-38.28243652 75.12037842 -39.22844727 75.72293457 -40.203125 76.34375 C-41.03489258 76.88193359 -41.86666016 77.42011719 -42.72363281 77.97460938 C-45 79 -45 79 -47.09765625 78.84985352 C-49.29039544 77.87026867 -50.56307409 76.78003369 -52.234375 75.05859375 C-53.09482422 74.18364258 -53.09482422 74.18364258 -53.97265625 73.29101562 C-54.55917969 72.67935547 -55.14570312 72.06769531 -55.75 71.4375 C-56.65298828 70.51420898 -56.65298828 70.51420898 -57.57421875 69.57226562 C-59.05634381 68.05485187 -60.5290967 66.52829404 -62 65 C-60.37919985 60.91212128 -57.44721147 58.18641638 -54.37280273 55.16162109 C-53.5115831 54.30237282 -53.5115831 54.30237282 -52.63296509 53.42576599 C-50.73773223 51.5370144 -48.83562889 49.6553366 -46.93359375 47.7734375 C-45.61554592 46.46166069 -44.29801234 45.149367 -42.98097229 43.83657837 C-39.51513666 40.38404 -36.04377673 36.93711434 -32.57080078 33.49176025 C-27.00689738 27.97099653 -21.44972266 22.44347962 -15.8957386 16.9127388 C-13.95201204 14.9792587 -12.00492123 13.04921384 -10.05747986 11.11947632 C-8.87080678 9.93962885 -7.68424179 8.75967264 -6.49780273 7.57958984 C-5.95284653 7.041371 -5.40789032 6.50315216 -4.84642029 5.94862366 C-2.07626456 3.23755012 -2.07626456 3.23755012 0 0 Z " fill="#00A78D" transform="translate(169,342)"/>
</svg>
